<svg xmlns="http://www.w3.org/2000/svg" style="display:none" aria-hidden="true">
  <defs>
    <symbol id="mv-users" viewBox="0 0 24 24" fill="none" stroke="currentColor" stroke-width="1.6" stroke-linecap="round" stroke-linejoin="round">
      <path d="M16 21v-2a4 4 0 0 0-4-4H6a4 4 0 0 0-4 4v2"/>
      <circle cx="9" cy="7" r="4"/>
      <path d="M22 21v-2a4 4 0 0 0-3-3.87"/>
      <path d="M16 3.13a4 4 0 0 1 0 7.75"/>
    </symbol>

    <symbol id="mv-home" viewBox="0 0 24 24" fill="none" stroke="currentColor" stroke-width="1.6" stroke-linecap="round" stroke-linejoin="round">
      <path d="M3 11l9-8 9 8v10a2 2 0 0 1-2 2h-4v-7H10v7H6a2 2 0 0 1-2-2V11z"/>
    </symbol>

    <symbol id="mv-chart" viewBox="0 0 24 24" fill="none" stroke="currentColor" stroke-width="1.6" stroke-linecap="round" stroke-linejoin="round">
      <line x1="3" y1="20" x2="21" y2="20"/>
      <rect x="6" y="11" width="3" height="9"/>
      <rect x="11" y="6" width="3" height="14"/>
      <rect x="16" y="14" width="3" height="6"/>
    </symbol>

    <symbol id="mv-history" viewBox="0 0 24 24" fill="none" stroke="currentColor" stroke-width="1.6" stroke-linecap="round" stroke-linejoin="round">
      <path d="M3 12a9 9 0 1 0 3-6.7"/>
      <path d="M3 4v5h5"/>
      <path d="M12 7v5l3 2"/>
    </symbol>

    <symbol id="mv-settings" viewBox="0 0 24 24" fill="none" stroke="currentColor" stroke-width="1.6" stroke-linecap="round" stroke-linejoin="round">
      <circle cx="12" cy="12" r="3"/>
      <path d="M19.4 15a1.7 1.7 0 0 0 .3 1.8l.1.1a2 2 0 1 1-2.8 2.8l-.1-.1a1.7 1.7 0 0 0-1.8-.3 1.7 1.7 0 0 0-1 1.5V21a2 2 0 1 1-4 0v-.1a1.7 1.7 0 0 0-1-1.5 1.7 1.7 0 0 0-1.8.3l-.1.1a2 2 0 1 1-2.8-2.8l.1-.1a1.7 1.7 0 0 0 .3-1.8 1.7 1.7 0 0 0-1.5-1H3a2 2 0 1 1 0-4h.1a1.7 1.7 0 0 0 1.5-1 1.7 1.7 0 0 0-.3-1.8l-.1-.1A2 2 0 1 1 7 4.9l.1.1a1.7 1.7 0 0 0 1.8.3H9a1.7 1.7 0 0 0 1-1.5V3a2 2 0 1 1 4 0v.1a1.7 1.7 0 0 0 1 1.5 1.7 1.7 0 0 0 1.8-.3l.1-.1a2 2 0 1 1 2.8 2.8l-.1.1a1.7 1.7 0 0 0-.3 1.8V9a1.7 1.7 0 0 0 1.5 1H21a2 2 0 1 1 0 4h-.1a1.7 1.7 0 0 0-1.5 1z"/>
    </symbol>

    <symbol id="mv-search" viewBox="0 0 24 24" fill="none" stroke="currentColor" stroke-width="1.6" stroke-linecap="round" stroke-linejoin="round">
      <circle cx="11" cy="11" r="7"/>
      <line x1="21" y1="21" x2="16.7" y2="16.7"/>
    </symbol>

    <symbol id="mv-bell" viewBox="0 0 24 24" fill="none" stroke="currentColor" stroke-width="1.6" stroke-linecap="round" stroke-linejoin="round">
      <path d="M6 8a6 6 0 0 1 12 0c0 7 3 9 3 9H3s3-2 3-9"/>
      <path d="M10.3 21a1.94 1.94 0 0 0 3.4 0"/>
    </symbol>

    <symbol id="mv-play" viewBox="0 0 24 24" fill="currentColor" stroke="none">
      <polygon points="6 3 20 12 6 21 6 3"/>
    </symbol>

    <symbol id="mv-pause" viewBox="0 0 24 24" fill="none" stroke="currentColor" stroke-width="1.6" stroke-linecap="round" stroke-linejoin="round">
      <rect x="6" y="4" width="4" height="16"/>
      <rect x="14" y="4" width="4" height="16"/>
    </symbol>

    <symbol id="mv-check" viewBox="0 0 24 24" fill="none" stroke="currentColor" stroke-width="1.6" stroke-linecap="round" stroke-linejoin="round">
      <path d="M20 6L9 17l-5-5"/>
    </symbol>

    <symbol id="mv-x" viewBox="0 0 24 24" fill="none" stroke="currentColor" stroke-width="1.6" stroke-linecap="round" stroke-linejoin="round">
      <line x1="18" y1="6" x2="6" y2="18"/>
      <line x1="6" y1="6" x2="18" y2="18"/>
    </symbol>

    <symbol id="mv-arrow-right" viewBox="0 0 24 24" fill="none" stroke="currentColor" stroke-width="1.6" stroke-linecap="round" stroke-linejoin="round">
      <line x1="5" y1="12" x2="19" y2="12"/>
      <polyline points="12 5 19 12 12 19"/>
    </symbol>

    <symbol id="mv-arrow-up" viewBox="0 0 24 24" fill="none" stroke="currentColor" stroke-width="1.6" stroke-linecap="round" stroke-linejoin="round">
      <line x1="12" y1="19" x2="12" y2="5"/>
      <polyline points="5 12 12 5 19 12"/>
    </symbol>

    <symbol id="mv-arrow-down" viewBox="0 0 24 24" fill="none" stroke="currentColor" stroke-width="1.6" stroke-linecap="round" stroke-linejoin="round">
      <line x1="12" y1="5" x2="12" y2="19"/>
      <polyline points="19 12 12 19 5 12"/>
    </symbol>

    <symbol id="mv-coffee" viewBox="0 0 24 24" fill="none" stroke="currentColor" stroke-width="1.6" stroke-linecap="round" stroke-linejoin="round">
      <path d="M17 8h1a4 4 0 1 1 0 8h-1"/>
      <path d="M3 8h14v9a4 4 0 0 1-4 4H7a4 4 0 0 1-4-4z"/>
      <line x1="6" y1="2" x2="6" y2="4"/>
      <line x1="10" y1="2" x2="10" y2="4"/>
      <line x1="14" y1="2" x2="14" y2="4"/>
    </symbol>

    <symbol id="mv-log-out" viewBox="0 0 24 24" fill="none" stroke="currentColor" stroke-width="1.6" stroke-linecap="round" stroke-linejoin="round">
      <path d="M9 21H5a2 2 0 0 1-2-2V5a2 2 0 0 1 2-2h4"/>
      <polyline points="16 17 21 12 16 7"/>
      <line x1="21" y1="12" x2="9" y2="12"/>
    </symbol>

    <symbol id="mv-calendar" viewBox="0 0 24 24" fill="none" stroke="currentColor" stroke-width="1.6" stroke-linecap="round" stroke-linejoin="round">
      <rect x="3" y="4" width="18" height="18" rx="2"/>
      <line x1="16" y1="2" x2="16" y2="6"/>
      <line x1="8" y1="2" x2="8" y2="6"/>
      <line x1="3" y1="10" x2="21" y2="10"/>
    </symbol>

    <symbol id="mv-download" viewBox="0 0 24 24" fill="none" stroke="currentColor" stroke-width="1.6" stroke-linecap="round" stroke-linejoin="round">
      <path d="M21 15v4a2 2 0 0 1-2 2H5a2 2 0 0 1-2-2v-4"/>
      <polyline points="7 10 12 15 17 10"/>
      <line x1="12" y1="15" x2="12" y2="3"/>
    </symbol>

    <symbol id="mv-filter" viewBox="0 0 24 24" fill="none" stroke="currentColor" stroke-width="1.6" stroke-linecap="round" stroke-linejoin="round">
      <path d="M22 3H2l8 9.5V19l4 2v-8.5L22 3z"/>
    </symbol>

    <symbol id="mv-bolt" viewBox="0 0 24 24" fill="currentColor" stroke="none">
      <path d="M13 2L3 14h7l-1 8 10-12h-7l1-8z"/>
    </symbol>

    <symbol id="mv-tag" viewBox="0 0 24 24" fill="none" stroke="currentColor" stroke-width="1.6" stroke-linecap="round" stroke-linejoin="round">
      <path d="M20.6 13.4L12 22l-9-9V3h10l8.6 8.6a2 2 0 0 1 0 2.8z"/>
      <circle cx="7.5" cy="7.5" r="1.2" fill="currentColor" stroke="none"/>
    </symbol>

    <symbol id="mv-store" viewBox="0 0 24 24" fill="none" stroke="currentColor" stroke-width="1.6" stroke-linecap="round" stroke-linejoin="round">
      <path d="M3 9l1-5h16l1 5"/>
      <path d="M4 9v11a1 1 0 0 0 1 1h14a1 1 0 0 0 1-1V9"/>
      <path d="M3 9a3 3 0 0 0 6 0 3 3 0 0 0 6 0 3 3 0 0 0 6 0"/>
    </symbol>

    <symbol id="mv-lock" viewBox="0 0 24 24" fill="none" stroke="currentColor" stroke-width="1.6" stroke-linecap="round" stroke-linejoin="round">
      <rect x="4" y="11" width="16" height="10" rx="2"/>
      <path d="M8 11V7a4 4 0 0 1 8 0v4"/>
    </symbol>

    <symbol id="mv-mail" viewBox="0 0 24 24" fill="none" stroke="currentColor" stroke-width="1.6" stroke-linecap="round" stroke-linejoin="round">
      <rect x="3" y="5" width="18" height="14" rx="2"/>
      <polyline points="3 7 12 13 21 7"/>
    </symbol>

    <symbol id="mv-more" viewBox="0 0 24 24" fill="currentColor" stroke="none">
      <circle cx="6" cy="12" r="1.4"/>
      <circle cx="12" cy="12" r="1.4"/>
      <circle cx="18" cy="12" r="1.4"/>
    </symbol>
  </defs>
</svg>
